<svg width="382" height="384" viewBox="0 0 382 384" fill="none" xmlns="http://www.w3.org/2000/svg">
<path d="M330.9 56.6L382 193.7L303.2 211L313.2 383.9H37.2L48.1 166.8L0.5 133.8L0 79.2C0 79.2 115.2 6 116.1 6H116.4H121.8C121.8 6.9 121.9 7.89993 122 8.79993C122.4 13.3999 123.5 17.8999 125.3 22.2999C127.9 28.5999 131.7 34.2 136.6 39C141.5 43.8 147.4 47.6 153.9 50.2C160.4 52.8 167.3 54.1 174.4 54.1C181.5 54.1 188.4 52.8 194.9 50.2C201.4 47.6 207.2 43.8 212.2 39C217.1 34.2 221 28.5999 223.5 22.2999C225.3 17.9999 226.4 13.4 226.8 8.90002C226.9 8.00002 226.9 7.09998 227 6.09998H232.4H232.9C233.5 6.09998 234.9 6.09995 270.8 24.7L289.2 0L350.2 29.6L330.5 56.1L330.9 56.6ZM375.4 190.1L327.2 60.7L222.8 201.3L180.4 258.5L179.2 257.7L52.9 170.1L42.2 379.7L308.1 379.2L298 206.7L300.6 206.6L375.4 190.1ZM326.3 53.5L342.7 31.2999L290.8 6.09998L275.3 26.9L272.3 31L171.6 166.2L168.6 170.2L164.5 167.4L23.6 70.4L23.4 70.2L5.79999 81.4L5 81.9L5.40002 131.2L52.2 163.7L53.1 164.3L176.4 249.8L179.4 251.9L323.3 57.6L326.3 53.5ZM167.6 163.4L267.9 28.7C249.6 19.3 235.2 12 232.7 11.1H232.1C231.5 15.5 230.4 19.9 228.7 24.1C225.9 31 221.7 37.1 216.3 42.4C210.9 47.7 204.4 51.8 197.2 54.7C190 57.6 182.3 59 174.5 59C166.7 59 159 57.5 151.8 54.7C144.6 51.8 138.2 47.7 132.7 42.4C127.3 37.1 123.1 30.9 120.3 24.1C118.6 19.9 117.4 15.5 116.9 11.1H116.7C111.7 13.5 67.1 42.3 28.3 67.5L167.6 163.4Z" fill="#C4FF33"/>
<path d="M327.2 60.7L375.4 190.1L300.7 206.6L298 206.7L308.2 379.2L42.2 379.7L52.9 170.1L179.2 257.7L180.4 258.6L222.8 201.4L327.2 60.7Z" fill="#C4FF33"/>
<path d="M342.8 31.2999L326.3 53.5L323.3 57.5L179.5 251.9L176.5 249.8L53.2 164.3L52.3 163.7L5.40002 131.2L5 81.9L5.90002 81.4L23.5 70.2L23.7 70.2999L164.6 167.4L168.7 170.2L171.7 166.2L272.4 31L275.4 26.9L290.9 6.19995L342.8 31.2999Z" fill="#1E1E1C"/>
<path d="M267.9 28.7L167.6 163.4L28.2 67.4C66.9 42.2 111.5 13.4 116.6 11H116.8C117.4 15.4 118.5 19.8 120.2 24C123 30.9 127.2 36.9999 132.6 42.2999C138 47.5999 144.5 51.7 151.7 54.6C158.9 57.5 166.5 58.9 174.4 58.9C182.3 58.9 189.9 57.4 197.1 54.6C204.3 51.7 210.7 47.5999 216.2 42.2999C221.6 36.9999 225.8 30.8 228.6 24C230.3 19.8 231.5 15.4 232 11H232.6C235.2 12 249.7 19.3 267.9 28.7Z" fill="#C4FF33"/>
</svg>
